<svg width="72" height="121" viewBox="0 0 72 121" fill="none" xmlns="http://www.w3.org/2000/svg">
<path d="M21.3619 35.127H36.0156C39.58 35.127 44.2812 35.127 46.7088 36.6065C49.3711 38.1965 51.4614 41.0895 51.4614 45.0718C51.4614 49.3854 49.2024 52.6243 45.462 54.1554V54.2732C50.4419 55.2964 53.1556 59.0432 53.1556 64.0414C53.1556 70.0039 48.9091 75.6867 40.8782 75.6867H21.3619V35.127ZM26.7379 52.5581H37.4971C43.6065 52.5581 46.1001 50.3424 46.1001 46.0803C46.1001 40.4564 42.1396 39.6614 37.4971 39.6614H26.7379V52.5581ZM26.7379 71.1302H40.2108C44.846 71.1302 47.7943 68.2888 47.7943 63.8648C47.7943 58.5795 43.5478 57.1073 39.0226 57.1073H26.7379V71.1302Z" fill="#ECE9D7"/>
<path d="M66.9071 55.4145C66.9071 72.4481 53.1482 86.2576 36.1696 86.2576C19.1983 86.2576 5.43942 72.4481 5.43942 55.4145C5.43942 38.3809 19.1983 24.5714 36.1696 24.5714C53.1482 24.5788 66.9071 38.3882 66.9071 55.4145ZM36.1769 19.875C16.6314 19.875 0.782227 35.7824 0.782227 55.3998C0.782227 75.0172 16.6314 90.9246 36.1769 90.9246C55.7298 90.9246 71.579 75.0172 71.579 55.3998C71.579 35.7824 55.7298 19.875 36.1769 19.875Z" fill="#ECE9D7"/>
<path d="M71.4981 98.4277H0.848022V103.087H71.4981V98.4277Z" fill="#ECE9D7"/>
<path d="M69.2901 93.2951C69.3781 93.2951 69.4587 93.2877 69.5394 93.2877C69.6128 93.2803 69.6861 93.2656 69.7448 93.2435C69.8108 93.2141 69.8548 93.1699 69.8915 93.1184C69.9281 93.0595 69.9428 92.9859 69.9428 92.8902C69.9428 92.8092 69.9281 92.7356 69.8988 92.6914C69.8695 92.6399 69.8255 92.6031 69.7741 92.581C69.7228 92.5516 69.6714 92.5369 69.5981 92.5221C69.5321 92.5148 69.4734 92.5148 69.4001 92.5148H68.894V93.3024H69.2901V93.2951ZM69.4587 92.1909C69.7521 92.1909 69.9648 92.2498 70.1115 92.3675C70.2508 92.4853 70.3242 92.662 70.3242 92.9049C70.3242 93.1331 70.2582 93.2877 70.1408 93.3981C70.0161 93.5012 69.8621 93.5601 69.6714 93.5821L70.3755 94.6716H69.9648L69.2901 93.6042H68.8867V94.6716H68.498V92.1982H69.4587V92.1909ZM67.7279 94.1416C67.8086 94.3624 67.9332 94.5612 68.0946 94.7231C68.2486 94.8851 68.432 95.0102 68.6447 95.1059C68.85 95.1942 69.0847 95.2384 69.3267 95.2384C69.5761 95.2384 69.8035 95.1942 70.0088 95.1059C70.2215 95.0102 70.4049 94.8851 70.5589 94.7231C70.7129 94.5612 70.8376 94.3698 70.9182 94.1416C71.0063 93.9207 71.0576 93.6852 71.0576 93.4275C71.0576 93.1699 71.0136 92.9344 70.9182 92.7135C70.8302 92.4927 70.7056 92.3013 70.5589 92.1394C70.3975 91.9774 70.2142 91.8523 70.0088 91.7639C69.8035 91.6756 69.5688 91.6241 69.3267 91.6241C69.0847 91.6241 68.85 91.6756 68.6447 91.7639C68.432 91.8596 68.2413 91.9848 68.0946 92.1394C67.9332 92.3013 67.8159 92.4927 67.7279 92.7135C67.6399 92.9344 67.5959 93.1625 67.5959 93.4275C67.5885 93.6778 67.6325 93.9207 67.7279 94.1416ZM67.3758 92.5884C67.4859 92.3307 67.6399 92.1173 67.8306 91.9259C68.0212 91.7345 68.2486 91.5946 68.5053 91.4842C68.762 91.3738 69.0407 91.3223 69.3194 91.3223C69.6128 91.3223 69.8841 91.3738 70.1482 91.4842C70.3975 91.5946 70.6249 91.7345 70.8082 91.9259C70.9989 92.1173 71.1603 92.3381 71.263 92.5884C71.3803 92.846 71.4316 93.1257 71.4316 93.4275C71.4316 93.7294 71.3803 94.0091 71.263 94.2667C71.1529 94.5317 70.9989 94.7525 70.8082 94.9439C70.6175 95.1427 70.3975 95.2825 70.1482 95.393C69.8841 95.496 69.6128 95.5476 69.3194 95.5476C69.0334 95.5476 68.762 95.496 68.5053 95.393C68.2486 95.2825 68.0212 95.1427 67.8306 94.9439C67.6399 94.7525 67.4859 94.5317 67.3758 94.2667C67.2585 94.0091 67.2145 93.7294 67.2145 93.4275C67.2072 93.1257 67.2585 92.846 67.3758 92.5884Z" fill="#ECE9D7"/>
<path d="M9.41507 4.25598C9.24638 3.98362 9.04103 3.74806 8.79167 3.54931C8.5423 3.3432 8.25627 3.18862 7.9409 3.07084C7.62553 2.96042 7.2955 2.90153 6.95079 2.90153C6.32005 2.90153 5.78466 3.02667 5.33727 3.26959C4.89722 3.5125 4.53785 3.84375 4.26648 4.25598C3.99512 4.6682 3.78976 5.13931 3.66508 5.66931C3.5404 6.19931 3.47439 6.74404 3.47439 7.30348C3.47439 7.84084 3.53307 8.36348 3.66508 8.8714C3.78976 9.37932 3.98778 9.83571 4.26648 10.2479C4.53785 10.6528 4.89722 10.984 5.33727 11.227C5.77732 11.4699 6.31272 11.595 6.95079 11.595C7.80889 11.595 8.48363 11.33 8.96035 10.8074C9.44441 10.2774 9.73777 9.58543 9.84779 8.72418H12.5688C12.4954 9.52654 12.3121 10.2479 12.0114 10.8957C11.7107 11.5435 11.322 12.0956 10.8306 12.5446C10.3392 13.001 9.76711 13.347 9.11437 13.5899C8.46163 13.8254 7.73555 13.9506 6.95079 13.9506C5.97535 13.9506 5.09524 13.7813 4.31049 13.4353C3.52573 13.0967 2.87299 12.6256 2.33026 12.022C1.79487 11.4257 1.38415 10.719 1.09812 9.90932C0.812089 9.0996 0.665405 8.23098 0.665405 7.29612C0.665405 6.33918 0.804755 5.44848 1.09812 4.63139C1.38415 3.81431 1.79487 3.09292 2.33026 2.48931C2.86566 1.87834 3.52573 1.39986 4.31049 1.05389C5.08791 0.707916 5.96801 0.53125 6.95079 0.53125C7.65487 0.53125 8.32228 0.634306 8.94568 0.833056C9.56909 1.03917 10.1338 1.33361 10.6252 1.72375C11.1166 2.11389 11.5273 2.59236 11.85 3.16653C12.1727 3.7407 12.3781 4.4032 12.4588 5.13931H9.73777C9.68643 4.81542 9.58376 4.52098 9.41507 4.25598Z" fill="#ECE9D7"/>
<path d="M16.2279 11.4262C16.6093 11.7942 17.1594 11.9856 17.8708 11.9856C18.3842 11.9856 18.8242 11.8605 19.1983 11.6028C19.565 11.3452 19.7923 11.0728 19.8803 10.7858H22.1173C21.7579 11.8973 21.2078 12.6997 20.4671 13.1781C19.7263 13.6566 18.8316 13.8995 17.7828 13.8995C17.0567 13.8995 16.3966 13.7817 15.8172 13.5462C15.2305 13.3106 14.7391 12.9794 14.3284 12.5524C13.925 12.1255 13.6096 11.6102 13.3896 11.0066C13.1696 10.4103 13.0596 9.74785 13.0596 9.03382C13.0596 8.34187 13.1696 7.69409 13.3969 7.09784C13.6243 6.50159 13.947 5.97895 14.3651 5.54465C14.7831 5.11034 15.2818 4.76437 15.8612 4.51409C16.4406 4.26381 17.0787 4.13867 17.7828 4.13867C18.5675 4.13867 19.2569 4.29326 19.8437 4.59506C20.4304 4.90423 20.9071 5.30909 21.2812 5.82437C21.6552 6.33965 21.9266 6.92854 22.0953 7.58368C22.264 8.23882 22.3226 8.93076 22.2713 9.65215H15.5972C15.6339 10.4545 15.8392 11.0581 16.2279 11.4262ZM19.0956 6.54576C18.7876 6.21451 18.3255 6.0452 17.7094 6.0452C17.3061 6.0452 16.9687 6.11145 16.6973 6.25131C16.426 6.39118 16.2133 6.56048 16.0519 6.75923C15.8906 6.96534 15.7805 7.17882 15.7145 7.40701C15.6485 7.6352 15.6119 7.83395 15.5972 8.01798H19.7337C19.6163 7.3702 19.4036 6.87701 19.0956 6.54576Z" fill="#ECE9D7"/>
<path d="M25.8361 4.36551V6.08801H25.8728C25.9901 5.80093 26.1515 5.53593 26.3568 5.28565C26.5622 5.04273 26.7895 4.82926 27.0536 4.65996C27.3176 4.49065 27.5963 4.35079 27.897 4.25509C28.1977 4.1594 28.5057 4.11523 28.8284 4.11523C28.9971 4.11523 29.1805 4.14468 29.3858 4.20357V6.57385C29.2685 6.55176 29.1218 6.52968 28.9531 6.51496C28.7844 6.50024 28.6231 6.48551 28.4691 6.48551C28.007 6.48551 27.611 6.56649 27.2883 6.72107C26.9655 6.87565 26.7089 7.08913 26.5108 7.36149C26.3128 7.63385 26.1735 7.94302 26.0928 8.30371C26.0121 8.66441 25.9681 9.05455 25.9681 9.47413V13.6626H23.4305V4.36551H25.8361Z" fill="#ECE9D7"/>
<path d="M36.1761 4.36694V6.07472H34.3132V10.6754C34.3132 11.1097 34.3865 11.3968 34.5259 11.5367C34.6652 11.6765 34.9586 11.7501 35.384 11.7501C35.5306 11.7501 35.6627 11.7428 35.7947 11.7354C35.9267 11.7207 36.0514 11.706 36.1687 11.6839V13.6567C35.956 13.6935 35.714 13.7156 35.45 13.7303C35.1859 13.745 34.9292 13.7524 34.6799 13.7524C34.2838 13.7524 33.9098 13.7229 33.5651 13.6714C33.213 13.6199 32.905 13.5168 32.6336 13.3549C32.3623 13.2003 32.1569 12.9795 31.9956 12.6924C31.8416 12.4053 31.7609 12.0299 31.7609 11.5588V6.08208H30.2207V4.3743H31.7609V1.5918H34.2985V4.3743H36.1761V4.36694Z" fill="#ECE9D7"/>
<path d="M37.6578 2.93145V0.826172H40.1954V2.93145H37.6578ZM40.1954 4.36687V13.6492H37.6578V4.36687H40.1954Z" fill="#ECE9D7"/>
<path d="M41.208 6.07465V4.36687H42.7262V3.64548C42.7262 2.82104 42.9829 2.14381 43.4963 1.61381C44.0097 1.08381 44.7871 0.826172 45.8212 0.826172C46.0486 0.826172 46.2759 0.833534 46.5033 0.855617C46.7306 0.870339 46.9507 0.892422 47.1634 0.899783V2.80631C46.8626 2.76951 46.5546 2.75479 46.2319 2.75479C45.8872 2.75479 45.6378 2.83576 45.4912 2.9977C45.3445 3.15965 45.2711 3.43201 45.2711 3.81479V4.37423H47.024V6.08201H45.2711V13.664H42.7262V6.08201H41.208V6.07465Z" fill="#ECE9D7"/>
<path d="M48.7407 2.93145V0.826172H51.2783V2.93145H48.7407ZM51.2856 4.36687V13.6492H48.7407V4.36687H51.2856Z" fill="#ECE9D7"/>
<path d="M55.2899 11.4272C55.6712 11.7953 56.2213 11.9867 56.9327 11.9867C57.4461 11.9867 57.8862 11.8615 58.2602 11.6039C58.6269 11.3463 58.8543 11.0739 58.9423 10.7868H61.1792C60.8198 11.8983 60.2698 12.7007 59.5364 13.1792C58.7956 13.6577 57.9008 13.9006 56.8521 13.9006C56.126 13.9006 55.4659 13.7828 54.8865 13.5472C54.2998 13.3117 53.8084 12.9804 53.3977 12.5535C52.9943 12.1265 52.6789 11.6113 52.4589 11.0076C52.2389 10.4114 52.1288 9.7489 52.1288 9.03487C52.1288 8.34292 52.2462 7.69514 52.4662 7.09889C52.6936 6.48056 53.0163 5.96528 53.4343 5.53097C53.8524 5.09667 54.3511 4.7507 54.9305 4.50042C55.5099 4.25014 56.148 4.125 56.8521 4.125C57.6368 4.125 58.3262 4.27958 58.913 4.58139C59.4997 4.89056 59.9764 5.29542 60.3504 5.8107C60.7245 6.32598 60.9959 6.91487 61.1645 7.57C61.3332 8.22514 61.3919 8.91709 61.3479 9.63848H54.6738C54.7031 10.4556 54.9085 11.0592 55.2899 11.4272ZM58.1649 6.54681C57.8642 6.21556 57.3948 6.04625 56.7787 6.04625C56.3753 6.04625 56.038 6.1125 55.7666 6.25236C55.4952 6.39223 55.2825 6.56153 55.1212 6.76028C54.9598 6.96639 54.8498 7.17987 54.7838 7.40806C54.7178 7.63626 54.6811 7.83501 54.6665 8.01903H58.7956C58.6783 7.37125 58.4656 6.87806 58.1649 6.54681Z" fill="#ECE9D7"/>
<path d="M69.0568 12.4719C68.7561 12.9725 68.3673 13.3405 67.8833 13.5614C67.3992 13.7822 66.8565 13.8926 66.2478 13.8926C65.5584 13.8926 64.9496 13.7601 64.4216 13.4878C63.8935 13.2154 63.4608 12.8547 63.1234 12.3909C62.786 11.9272 62.5293 11.3972 62.3533 10.8009C62.1773 10.2047 62.0966 9.579 62.0966 8.93122C62.0966 8.30552 62.1846 7.70927 62.3533 7.12774C62.522 6.54621 62.786 6.0383 63.1234 5.58927C63.4608 5.1476 63.8935 4.78691 64.3995 4.52191C64.9129 4.24955 65.507 4.11705 66.1891 4.11705C66.7392 4.11705 67.2599 4.23482 67.7513 4.47038C68.25 4.70593 68.6387 5.04455 68.9247 5.50094H68.9614V0.833984H71.499V13.6571H69.0861V12.4719H69.0568ZM68.9467 7.87858C68.8734 7.52524 68.756 7.21608 68.58 6.94372C68.404 6.67135 68.184 6.45788 67.9053 6.28858C67.6339 6.11927 67.2819 6.0383 66.8712 6.0383C66.4605 6.0383 66.1011 6.11927 65.815 6.28858C65.529 6.45788 65.3017 6.67871 65.1256 6.95108C64.9569 7.22344 64.8323 7.53997 64.7516 7.8933C64.6709 8.24663 64.6342 8.61469 64.6342 8.99747C64.6342 9.35816 64.6783 9.71886 64.7589 10.0722C64.8396 10.4329 64.9789 10.7494 65.1623 11.0365C65.3457 11.3162 65.5804 11.5444 65.8591 11.7211C66.1378 11.8977 66.4751 11.9787 66.8712 11.9787C67.2892 11.9787 67.6339 11.8978 67.92 11.7284C68.1987 11.5591 68.426 11.3383 68.5947 11.0512C68.7634 10.7715 68.8807 10.4476 68.9541 10.0943C69.0274 9.73358 69.0641 9.36552 69.0641 8.98275C69.0567 8.59997 69.0201 8.23191 68.9467 7.87858Z" fill="#ECE9D7"/>
<path d="M7.04529 112.236C6.92061 111.338 6.06251 110.653 5.07973 110.653C3.30486 110.653 2.63745 112.17 2.63745 113.752C2.63745 115.254 3.30486 116.77 5.07973 116.77C6.28987 116.77 6.97195 115.939 7.11863 114.746H9.04018C8.83482 116.999 7.28731 118.441 5.07973 118.441C2.29275 118.441 0.657227 116.351 0.657227 113.752C0.657227 111.073 2.29275 108.982 5.07973 108.982C7.05996 108.982 8.71748 110.145 8.95951 112.236H7.04529Z" fill="#ECE9D7"/>
<path d="M13.17 111.514C15.2236 111.514 16.5438 112.875 16.5438 114.966C16.5438 117.042 15.2236 118.404 13.17 118.404C11.1311 118.404 9.80365 117.035 9.80365 114.966C9.80365 112.883 11.1311 111.514 13.17 111.514ZM13.17 117.057C14.3948 117.057 14.7542 116.004 14.7542 114.973C14.7542 113.921 14.3875 112.875 13.17 112.875C11.9599 112.875 11.5932 113.928 11.5932 114.973C11.5932 116.004 11.9599 117.057 13.17 117.057Z" fill="#ECE9D7"/>
<path d="M17.6494 111.683H19.3509V112.897H19.3802C19.7029 112.073 20.5904 111.506 21.4631 111.506C21.5878 111.506 21.7418 111.528 21.8518 111.565V113.236C21.6831 113.199 21.4191 113.177 21.2064 113.177C19.8936 113.177 19.4389 114.126 19.4389 115.275V118.219H17.6494V111.683Z" fill="#ECE9D7"/>
<path d="M22.5491 111.69H24.2507V112.522H24.2727C24.6981 111.83 25.4021 111.514 26.2089 111.514C28.2551 111.514 29.1719 113.17 29.1719 115.025C29.1719 116.77 28.2185 118.404 26.3116 118.404C25.5341 118.404 24.7861 118.065 24.3607 117.417H24.3313V120.531H22.5418V111.69H22.5491ZM27.3824 114.981C27.3824 113.943 26.9643 112.868 25.8202 112.868C24.6467 112.868 24.2727 113.921 24.2727 114.981C24.2727 116.041 24.6761 117.057 25.8348 117.057C27.0083 117.057 27.3824 116.041 27.3824 114.981Z" fill="#ECE9D7"/>
<path d="M33.0969 111.514C35.1505 111.514 36.478 112.875 36.478 114.966C36.478 117.042 35.1505 118.404 33.0969 118.404C31.058 118.404 29.7379 117.035 29.7379 114.966C29.7379 112.883 31.058 111.514 33.0969 111.514ZM33.0969 117.057C34.3217 117.057 34.6884 116.004 34.6884 114.973C34.6884 113.921 34.3217 112.875 33.0969 112.875C31.8868 112.875 31.5201 113.928 31.5201 114.973C31.5274 116.004 31.8941 117.057 33.0969 117.057Z" fill="#ECE9D7"/>
<path d="M37.5854 111.683H39.2869V112.897H39.3163C39.639 112.073 40.5264 111.506 41.3918 111.506C41.5165 111.506 41.6705 111.528 41.7805 111.565V113.236C41.6192 113.199 41.3552 113.177 41.1351 113.177C39.8223 113.177 39.3676 114.126 39.3676 115.275V118.219H37.5781V111.683H37.5854Z" fill="#ECE9D7"/>
<path d="M42.3084 113.7C42.4111 112.014 43.9073 111.514 45.3741 111.514C46.6723 111.514 48.2344 111.801 48.2344 113.369V116.77C48.2344 117.366 48.2931 117.955 48.4618 118.227H46.6429C46.5843 118.021 46.5256 117.807 46.5183 117.594C45.9535 118.19 45.1248 118.404 44.3253 118.404C43.0932 118.404 42.1104 117.785 42.1104 116.446C42.1104 114.966 43.2179 114.613 44.3253 114.458C45.4255 114.296 46.4449 114.333 46.4449 113.597C46.4449 112.824 45.9095 112.714 45.2861 112.714C44.604 112.714 44.164 112.993 44.098 113.7H42.3084ZM46.4376 115.032C46.1295 115.297 45.5061 115.312 44.9487 115.415C44.3913 115.525 43.8926 115.717 43.8926 116.379C43.8926 117.049 44.406 117.211 44.9927 117.211C46.3862 117.211 46.4449 116.1 46.4449 115.71V115.032H46.4376Z" fill="#ECE9D7"/>
<path d="M51.8434 111.691H53.1563V112.891H51.8434V116.13C51.8434 116.741 51.9975 116.888 52.5989 116.888C52.7895 116.888 52.9656 116.873 53.1563 116.836V118.242C52.8556 118.294 52.4595 118.309 52.1075 118.309C51.0147 118.309 50.0539 118.051 50.0539 116.755V112.898H48.9684V111.698H50.0539V109.74H51.8434V111.691Z" fill="#ECE9D7"/>
<path d="M56.2932 110.683H54.5037V109.203H56.2932V110.683ZM54.5037 111.691H56.2932V118.228H54.5037V111.691Z" fill="#ECE9D7"/>
<path d="M60.8561 111.514C62.9097 111.514 64.2372 112.875 64.2372 114.966C64.2372 117.042 62.9097 118.404 60.8561 118.404C58.8172 118.404 57.4971 117.035 57.4971 114.966C57.4971 112.883 58.8172 111.514 60.8561 111.514ZM60.8561 117.057C62.0809 117.057 62.4476 116.004 62.4476 114.973C62.4476 113.921 62.0809 112.875 60.8561 112.875C59.646 112.875 59.2793 113.928 59.2793 114.973C59.2793 116.004 59.646 117.057 60.8561 117.057Z" fill="#ECE9D7"/>
<path d="M65.3899 111.69H67.0914V112.603H67.1281C67.5828 111.867 68.3602 111.514 69.123 111.514C71.0225 111.514 71.5066 112.588 71.5066 114.208V118.227H69.717V114.532C69.717 113.457 69.4017 112.927 68.5729 112.927C67.5975 112.927 67.1868 113.472 67.1868 114.804V118.234H65.3972V111.69H65.3899Z" fill="#ECE9D7"/>
</svg>
