<svg width="160" height="37" viewBox="0 0 160 37" fill="none" xmlns="http://www.w3.org/2000/svg">
    <path d="M64.707 28.5312C63.8066 28.8644 62.8521 29.0268 61.8922 29.0103C60.892 29.027 59.9037 28.7922 59.0178 28.3277C58.1748 27.8751 57.4839 27.1839 57.0314 26.3407C56.5298 25.3764 56.2825 24.3001 56.3128 23.2136C56.2873 22.2899 56.4841 21.3735 56.8867 20.5418C57.24 19.8302 57.7992 19.2416 58.4916 18.8524C59.2272 18.4574 60.0525 18.2596 60.8872 18.2784C61.9439 18.2699 62.9801 18.5696 63.8693 19.1407C64.9062 19.8598 65.7697 20.8013 66.3968 21.8965V16.8628C65.6432 16.3679 64.8137 15.9996 63.9412 15.7726C62.92 15.5122 61.869 15.3872 60.8152 15.4008C59.1471 15.3641 57.4976 15.7561 56.0241 16.5391C54.6771 17.2717 53.5707 18.3786 52.8385 19.7262C52.0621 21.1976 51.6745 22.8431 51.7124 24.5065C51.6882 26.0043 52.0425 27.4839 52.7427 28.8081C53.4119 30.0603 54.4206 31.0984 55.6529 31.8031C56.9946 32.5516 58.5122 32.9273 60.048 32.8911C62.1079 32.8911 63.681 32.4119 64.7672 31.4534C65.8533 30.4949 66.468 29.0571 66.6114 27.1399C66.124 27.7776 65.4626 28.2608 64.707 28.5312Z" fill="#F4F2E6"/>
    <path d="M78.5418 29.5827C78.3459 29.3306 78.2514 29.0143 78.277 28.6961V25.1976C78.305 24.2516 78.0991 23.3133 77.678 22.4658C77.289 21.7254 76.6773 21.126 75.9291 20.7525C75.0706 20.3408 74.1265 20.1395 73.1748 20.1653C72.209 20.1435 71.2486 20.3146 70.3498 20.6687C69.5788 20.9822 68.9108 21.5051 68.4212 22.1783C67.9097 22.9204 67.6229 23.7942 67.595 24.6952C68.0528 24.224 68.6089 23.8599 69.2238 23.6288C69.8783 23.4025 70.5675 23.293 71.26 23.3052C71.9554 23.2712 72.6435 23.4601 73.2242 23.8443C73.4572 24.001 73.6473 24.2135 73.7771 24.4626C73.9068 24.7116 73.9721 24.9892 73.9671 25.2701V25.5602L71.6193 25.9889C70.4339 26.1538 69.3093 26.6154 68.3498 27.3308C67.7705 27.8061 67.3867 28.4782 67.2717 29.2188C67.1567 29.9593 67.3186 30.7163 67.7265 31.3449C68.0551 31.8332 68.5107 32.2224 69.0441 32.4709C69.633 32.7434 70.2758 32.8792 70.9245 32.8683C71.6972 32.871 72.4542 32.6505 73.1046 32.2333C73.5387 31.98 73.9165 31.6407 74.2151 31.2363C74.2399 31.3012 74.2616 31.3688 74.2902 31.4306C74.493 31.8798 74.833 32.253 75.2613 32.4965C75.884 32.8083 76.5853 32.928 77.2761 32.8406C77.9669 32.7532 78.6163 32.4625 79.1417 32.0055C79.783 31.3565 80.1662 30.4963 80.22 29.5853C79.9724 29.7743 79.669 29.8754 79.3576 29.8728C79.2088 29.8851 79.0591 29.8656 78.9185 29.8155C78.7778 29.7655 78.6494 29.6862 78.5418 29.5827ZM73.5831 29.9898C73.3786 30.0756 73.158 30.1165 72.9364 30.1099C72.7623 30.1189 72.5884 30.0916 72.4255 30.0298C72.2625 29.9679 72.1142 29.8728 71.99 29.7505C71.8729 29.6256 71.7819 29.4786 71.7223 29.3181C71.6627 29.1576 71.6356 28.9868 71.6427 28.8157C71.6378 28.4284 71.7839 28.0545 72.05 27.7732C72.3811 27.4479 72.8106 27.2415 73.2714 27.1864L73.9666 27.0628V29.7024C73.8569 29.8202 73.727 29.9176 73.5831 29.9898Z" fill="#F4F2E6"/>
    <path d="M92.4221 30.6853C92.4137 30.5259 92.4102 30.2698 92.4102 29.9183V20.3574L87.4752 21.2441C87.6989 21.7077 87.8507 22.0471 87.9307 22.2623C88.0086 22.4701 88.0569 22.6879 88.0743 22.9092C88.0896 23.1249 88.0975 23.4645 88.0981 23.9278V28.7977C87.9751 29.0232 87.7983 29.2147 87.5834 29.3554C87.2943 29.5418 86.9562 29.6377 86.6123 29.6309C86.3864 29.6417 86.1608 29.6046 85.9502 29.522C85.7397 29.4395 85.5489 29.3133 85.3905 29.1518C85.0561 28.7414 84.893 28.2176 84.9354 27.6898V20.3574L80.0009 21.2441C80.2243 21.7077 80.3758 22.0471 80.4556 22.2623C80.5338 22.4701 80.5822 22.6878 80.5994 22.9092C80.6153 23.1249 80.6233 23.4645 80.6233 23.9278V28.6498C80.6077 29.4031 80.7549 30.1508 81.0545 30.8421C81.3288 31.458 81.7789 31.979 82.3483 32.3398C82.9909 32.7255 83.7313 32.9171 84.4803 32.8913C85.2695 32.9025 86.0458 32.6907 86.72 32.2802C87.2886 31.9408 87.7623 31.4633 88.0972 30.892V32.7235L93.0079 32.0762C92.7843 31.6612 92.6326 31.3656 92.5528 31.1896C92.4774 31.0314 92.433 30.8602 92.4221 30.6853Z" fill="#F4F2E6"/>
    <path d="M100.92 25.1552L98.1893 23.8853C97.9797 23.8053 97.7912 23.6783 97.6384 23.514C97.5317 23.3915 97.4723 23.2349 97.4707 23.0724C97.4655 22.9735 97.4845 22.8747 97.5262 22.7849C97.568 22.695 97.6313 22.6168 97.7104 22.5571C97.9166 22.4243 98.16 22.3613 98.4048 22.3774C99.1661 22.4266 99.9013 22.6744 100.537 23.0963C101.353 23.5772 102.082 24.1929 102.693 24.9172V21.2991C102.108 20.9011 101.46 20.6053 100.776 20.4244C100.071 20.2507 99.3469 20.1661 98.6206 20.1727C97.7648 20.1577 96.9168 20.338 96.1411 20.7C95.4527 21.019 94.8647 21.5203 94.4405 22.1496C94.0336 22.7637 93.8208 23.486 93.8296 24.2227C93.8061 24.9392 94.0026 25.6458 94.3928 26.2472C94.8427 26.8587 95.4515 27.3353 96.1531 27.6253L98.9557 28.9433C99.1641 29.0367 99.3515 29.1711 99.5069 29.3385C99.6194 29.477 99.6789 29.6511 99.6747 29.8295C99.6769 29.9352 99.6529 30.0398 99.6048 30.1339C99.5568 30.2281 99.4861 30.3089 99.3992 30.3691C99.192 30.5116 98.9442 30.5831 98.6929 30.5726C97.8576 30.5143 97.0522 30.2375 96.3574 29.7699C95.339 29.1409 94.4087 28.3793 93.5908 27.5052L93.8997 31.6032C94.5095 32.0273 95.1856 32.347 95.9002 32.5494C96.7311 32.7767 97.5898 32.8856 98.4511 32.8731C99.3356 32.8924 100.213 32.7078 101.014 32.3335C101.707 32.0173 102.292 31.5049 102.696 30.8597C103.1 30.2145 103.307 29.4649 103.29 28.7035C103.315 27.9459 103.11 27.1983 102.703 26.5589C102.256 25.9298 101.637 25.4426 100.92 25.1552Z" fill="#F4F2E6"/>
    <path d="M115.488 23.0911C115.04 22.1727 114.315 21.4184 113.416 20.9345C112.365 20.3941 111.195 20.1301 110.014 20.1676C108.883 20.1458 107.768 20.436 106.792 21.0065C105.865 21.5579 105.116 22.3647 104.636 23.3304C104.124 24.3569 103.866 25.4908 103.881 26.6376C103.858 27.7785 104.144 28.9043 104.708 29.8963C105.253 30.8335 106.055 31.5946 107.019 32.089C108.096 32.6282 109.289 32.8956 110.493 32.8679C112.217 32.8679 113.535 32.4685 114.445 31.6695C114.894 31.2773 115.256 30.7953 115.508 30.2547C115.759 29.7141 115.895 29.1268 115.906 28.5305C115.497 28.8533 115.017 29.075 114.505 29.1774C113.875 29.3372 113.227 29.4177 112.577 29.4172C111.779 29.4332 110.986 29.2779 110.253 28.9619C109.632 28.6988 109.097 28.2672 108.708 27.7159C108.41 27.2824 108.231 26.7783 108.188 26.2539H116.146C116.181 25.1623 115.956 24.078 115.488 23.0911ZM108.172 24.5769C108.169 24.1169 108.241 23.6594 108.385 23.2226C108.5 22.8584 108.716 22.5343 109.008 22.2883C109.288 22.0696 109.635 21.9552 109.99 21.9647C110.353 21.9527 110.708 22.0671 110.996 22.2883C111.281 22.5236 111.493 22.8353 111.607 23.1869C111.754 23.6358 111.831 24.1046 111.835 24.5769H108.172Z" fill="#F4F2E6"/>
    <path d="M136.208 20.5664H131.848C132.103 21.0618 132.271 21.4133 132.351 21.6208C132.427 21.7982 132.455 21.9921 132.435 22.1838C132.382 22.4574 132.306 22.7259 132.207 22.9866L130.637 27.3288L127.752 20.5664H125.404L122.692 27.2665L121.188 22.9627C121.076 22.7008 120.991 22.4277 120.937 22.148C120.914 21.9554 120.93 21.7602 120.984 21.574C121.109 21.2207 121.274 20.8829 121.476 20.5673H115.488C115.728 20.9576 115.944 21.3618 116.135 21.7776C116.263 22.0719 116.478 22.5791 116.782 23.2992L120.735 32.7404H122.721L125.786 25.7043L128.974 32.7404H130.96L134.913 23.2992C135.2 22.6601 135.404 22.2087 135.523 21.9449C135.643 21.6812 135.871 21.2217 136.208 20.5664Z" fill="#F4F2E6"/>
    <path d="M148.411 29.5827C148.164 29.7716 147.86 29.8728 147.549 29.8701C147.401 29.8825 147.251 29.8633 147.111 29.8138C146.971 29.7642 146.842 29.6855 146.734 29.5827C146.539 29.3305 146.444 29.0143 146.469 28.6961V25.1976C146.498 24.2516 146.292 23.3133 145.871 22.4658C145.482 21.7254 144.87 21.126 144.122 20.7525C143.263 20.3408 142.319 20.1395 141.367 20.1653C140.402 20.1435 139.441 20.3146 138.542 20.6686C137.771 20.9823 137.104 21.5052 136.614 22.1783C136.103 22.9204 135.816 23.7942 135.788 24.6952C136.246 24.224 136.802 23.8598 137.417 23.6288C138.071 23.4026 138.76 23.293 139.452 23.3051C140.148 23.2711 140.836 23.46 141.417 23.8443C141.65 24.001 141.84 24.2136 141.97 24.4626C142.1 24.7117 142.165 24.9893 142.16 25.2701V25.5602L139.812 25.9889C138.627 26.1537 137.502 26.6153 136.542 27.3308C135.963 27.8061 135.579 28.4783 135.464 29.2189C135.35 29.9594 135.512 30.7163 135.919 31.3449C136.248 31.8332 136.704 32.2226 137.237 32.4709C137.826 32.7434 138.469 32.8793 139.117 32.8683C139.89 32.871 140.647 32.6505 141.297 32.2333C141.731 31.98 142.109 31.6407 142.408 31.2363C142.433 31.3012 142.454 31.3688 142.483 31.4306C142.686 31.8797 143.026 32.2529 143.454 32.4965C144.077 32.8083 144.778 32.9281 145.469 32.8407C146.16 32.7532 146.81 32.4626 147.335 32.0055C147.976 31.3554 148.359 30.4942 148.411 29.5827ZM141.776 29.9898C141.571 30.0756 141.351 30.1165 141.129 30.1099C140.955 30.119 140.781 30.0917 140.618 30.0298C140.455 29.9679 140.307 29.8728 140.183 29.7505C140.066 29.6256 139.975 29.4786 139.915 29.3181C139.856 29.1576 139.829 28.9868 139.836 28.8157C139.831 28.4285 139.977 28.0547 140.243 27.7732C140.574 27.4479 141.003 27.2416 141.464 27.1864L142.159 27.0628V29.7024C142.05 29.8203 141.92 29.9177 141.776 29.9898Z" fill="#F4F2E6"/>
    <path d="M155.519 20.5648C155.704 20.9061 155.868 21.2582 156.01 21.6192C156.08 21.8023 156.097 22.0012 156.059 22.1932C155.985 22.4707 155.893 22.7428 155.783 23.0079L153.996 27.0026L152.334 23.0803C152.21 22.793 152.11 22.4964 152.034 22.1932C151.994 21.9992 151.998 21.7987 152.046 21.6064C152.158 21.2467 152.302 20.8978 152.477 20.5639H146.368C146.704 21.155 146.939 21.5783 147.075 21.8338C147.21 22.0893 147.438 22.5767 147.757 23.2958L151.598 31.597L149.509 34.1725C149.209 34.557 148.889 34.9254 148.55 35.2764C148.263 35.5799 148 35.8435 147.76 36.0672C147.52 36.291 147.264 36.5546 146.993 36.8581H152.359L158.611 23.343C158.93 22.6566 159.154 22.1813 159.282 21.9173C159.41 21.6532 159.649 21.202 160 20.5635L155.519 20.5648Z" fill="#F4F2E6"/>
    <path d="M13.667 32.7278H40.6966V20.5264H13.5942C13.2088 20.5129 12.8428 20.3537 12.5701 20.0809C12.2974 19.8081 12.1382 19.442 12.1247 19.0565C12.1103 18.698 12.2304 18.347 12.4616 18.0727C12.6928 17.7984 13.0183 17.6206 13.3739 17.5742L40.697 12.2014V0L11.0221 5.82539C3.74767 7.22202 0.000130935 13.1905 0.000130935 19.1444C-0.00775945 20.9378 0.341042 22.7149 1.02617 24.3722C1.71129 26.0296 2.71908 27.534 3.9909 28.7981C5.26273 30.0622 6.77312 31.0606 8.43429 31.7352C10.0955 32.4099 11.8742 32.7473 13.667 32.7278Z" fill="#F4F2E6"/>
</svg>
