<svg width="20" height="21" viewBox="0 0 20 21" fill="none" xmlns="http://www.w3.org/2000/svg">
<path d="M7.0448 17.7624H18.9998V12.3709H7.01262C6.84215 12.3649 6.68029 12.2946 6.55967 12.174C6.43906 12.0535 6.36865 11.8917 6.36268 11.7213C6.35628 11.5629 6.40942 11.4079 6.51167 11.2866C6.61392 11.1654 6.75789 11.0869 6.9152 11.0664L19 8.69226V3.30078L5.87498 5.87487C2.65757 6.492 1.00006 9.12931 1.00006 11.7602C0.996568 12.5526 1.15084 13.3379 1.45387 14.0702C1.75689 14.8026 2.20263 15.4674 2.76515 16.0259C3.32767 16.5845 3.9957 17.0256 4.73043 17.3237C5.46515 17.6219 6.25187 17.771 7.0448 17.7624Z" fill="#ECE9D7"/>
</svg>
