<svg width="25" height="25" viewBox="0 0 25 25" fill="none" xmlns="http://www.w3.org/2000/svg">
<path fill-rule="evenodd" clip-rule="evenodd" d="M21.4235 24.5312H2.75688C1.28412 24.5312 0.09021 23.3373 0.09021 21.8646V3.19792C0.09021 1.72516 1.28412 0.53125 2.75688 0.53125H21.4235C22.8963 0.53125 24.0902 1.72516 24.0902 3.19792V21.8646C24.0902 23.3373 22.8963 24.5312 21.4235 24.5312ZM17.1954 21.1979H20.7569V13.8817C20.7569 10.7861 19.0021 9.28932 16.5511 9.28932C14.0989 9.28932 13.0669 11.1989 13.0669 11.1989V9.64236H9.63465V21.1979H13.0669V15.132C13.0669 13.5066 13.8151 12.5394 15.2471 12.5394C16.5635 12.5394 17.1954 13.4688 17.1954 15.132V21.1979ZM3.42354 5.99692C3.42354 7.17447 4.3709 8.12925 5.53999 8.12925C6.70909 8.12925 7.65588 7.17447 7.65588 5.99692C7.65588 4.81937 6.70909 3.86458 5.53999 3.86458C4.3709 3.86458 3.42354 4.81937 3.42354 5.99692ZM7.34668 21.1979H3.76773V9.64236H7.34668V21.1979Z" fill="#1F96E0"/>
</svg>
