<svg width="24" height="25" viewBox="0 0 24 25" fill="none" xmlns="http://www.w3.org/2000/svg">
<g clip-path="url(#clip0_536_29366)">
<path d="M7.02998 0.615175C5.75318 0.675415 4.88126 0.879175 4.11902 1.1787C3.33014 1.48614 2.6615 1.8987 1.99622 2.56638C1.33094 3.23406 0.921257 3.90318 0.615977 4.69326C0.320537 5.45718 0.120377 6.32982 0.0639774 7.60734C0.00757739 8.88486 -0.00490261 9.2955 0.00133739 12.5542C0.00757739 15.8129 0.0219774 16.2214 0.0838974 17.5016C0.144857 18.7781 0.347897 19.6498 0.647417 20.4123C0.955337 21.2012 1.36742 21.8696 2.03534 22.5351C2.70326 23.2006 3.3719 23.6093 4.1639 23.9151C4.9271 24.2101 5.79998 24.4112 7.07726 24.4671C8.35454 24.523 8.76566 24.536 12.0234 24.5297C15.2812 24.5235 15.6913 24.5091 16.9713 24.4484C18.2512 24.3877 19.1183 24.1832 19.881 23.8851C20.6699 23.5765 21.3388 23.1651 22.0038 22.4969C22.6689 21.8288 23.0783 21.1592 23.3833 20.3686C23.679 19.6054 23.8799 18.7325 23.9353 17.4562C23.9913 16.1753 24.0045 15.7664 23.9982 12.5081C23.992 9.2499 23.9773 8.84142 23.9166 7.56174C23.8559 6.28206 23.6526 5.41302 23.3533 4.65006C23.0449 3.86118 22.6333 3.19326 21.9657 2.52726C21.298 1.86126 20.6279 1.45206 19.8376 1.14774C19.0739 0.852295 18.2015 0.650935 16.9242 0.595735C15.6469 0.540535 15.2358 0.526375 11.9769 0.532615C8.7179 0.538855 8.3099 0.552775 7.02998 0.615175ZM7.17014 22.3083C6.00014 22.2574 5.36486 22.063 4.9415 21.9003C4.38086 21.6843 3.9815 21.4232 3.55958 21.0053C3.13766 20.5875 2.87846 20.1867 2.65958 19.6273C2.49518 19.2039 2.29718 18.5693 2.24246 17.3993C2.18294 16.1348 2.17046 15.7551 2.1635 12.5513C2.15654 9.34758 2.16878 8.96838 2.22422 7.70334C2.27414 6.5343 2.46974 5.8983 2.63222 5.47518C2.84822 4.91382 3.10838 4.51518 3.52718 4.0935C3.94598 3.67182 4.34558 3.41214 4.9055 3.19326C5.32838 3.02814 5.96294 2.83182 7.13246 2.77614C8.39798 2.71614 8.77718 2.70414 11.9805 2.69718C15.1837 2.69022 15.5639 2.70222 16.8299 2.75789C17.9989 2.80878 18.6352 3.00245 19.0578 3.16589C19.6187 3.3819 20.0178 3.64134 20.4395 4.06086C20.8612 4.48038 21.1211 4.87854 21.34 5.43966C21.5053 5.86134 21.7017 6.49566 21.7569 7.6659C21.8171 8.93142 21.8308 9.31085 21.8365 12.5139C21.8423 15.7169 21.831 16.0973 21.7756 17.3619C21.7245 18.5319 21.5305 19.1674 21.3676 19.5913C21.1516 20.1517 20.8912 20.5513 20.4721 20.9727C20.0531 21.3941 19.654 21.6538 19.0938 21.8727C18.6714 22.0376 18.0361 22.2344 16.8676 22.2901C15.6021 22.3496 15.2229 22.3621 12.0184 22.369C8.8139 22.376 8.4359 22.363 7.17038 22.3083M16.9528 6.11766C16.9533 6.40248 17.0382 6.68077 17.1968 6.91732C17.3555 7.15387 17.5807 7.33806 17.844 7.4466C18.1074 7.55514 18.397 7.58314 18.6762 7.52708C18.9555 7.47101 19.2118 7.33339 19.4129 7.13162C19.6139 6.92985 19.7506 6.67299 19.8056 6.39353C19.8607 6.11408 19.8316 5.82458 19.7221 5.56164C19.6126 5.29871 19.4276 5.07415 19.1905 4.91637C18.9533 4.7586 18.6747 4.67469 18.3899 4.67526C18.0081 4.67602 17.6422 4.8284 17.3727 5.09889C17.1032 5.36938 16.9521 5.73583 16.9528 6.11766ZM5.83838 12.5432C5.8451 15.9464 8.60894 18.6989 12.0114 18.6925C15.4139 18.686 18.1684 15.9224 18.1619 12.5192C18.1554 9.11598 15.3909 6.3627 11.9879 6.36942C8.58494 6.37614 5.8319 9.14046 5.83838 12.5432ZM7.99982 12.5389C7.99825 11.7477 8.23132 10.9739 8.66955 10.3152C9.10779 9.65652 9.7315 9.14259 10.4618 8.83839C11.1921 8.53419 11.9963 8.45338 12.7725 8.60619C13.5487 8.75899 14.2622 9.13855 14.8228 9.69686C15.3833 10.2552 15.7657 10.9672 15.9216 11.7428C16.0774 12.5184 15.9998 13.3229 15.6985 14.0544C15.3972 14.7859 14.8857 15.4116 14.2288 15.8525C13.5719 16.2933 12.799 16.5294 12.0078 16.531C11.4825 16.5321 10.9621 16.4297 10.4764 16.2297C9.99064 16.0296 9.54906 15.7359 9.17687 15.3652C8.80468 14.9944 8.50917 14.554 8.30721 14.0691C8.10524 13.5842 8.00079 13.0642 7.99982 12.5389Z" fill="#1F96E0"/>
</g>
<defs>
<clipPath id="clip0_536_29366">
<rect width="24" height="24" fill="white" transform="translate(0 0.53125)"/>
</clipPath>
</defs>
</svg>
