<svg width="25" height="25" viewBox="0 0 25 25" fill="none" xmlns="http://www.w3.org/2000/svg">
<g clip-path="url(#clip0_536_29376)">
<path d="M21.6332 7.38611C21.6478 7.59769 21.6478 7.80926 21.6478 8.02279C21.6478 14.5291 16.6947 22.0328 7.6378 22.0328V22.0289C4.96236 22.0328 2.3425 21.2664 0.09021 19.8215C0.479241 19.8683 0.870222 19.8917 1.26218 19.8926C3.47936 19.8946 5.63317 19.1506 7.37747 17.7807C5.27047 17.7408 3.42281 16.367 2.77735 14.3614C3.51544 14.5037 4.27595 14.4745 5.00039 14.2765C2.70325 13.8124 1.0506 11.7942 1.0506 9.45021C1.0506 9.42876 1.0506 9.40829 1.0506 9.38781C1.73506 9.76904 2.50142 9.98062 3.28533 10.004C1.12178 8.55808 0.454866 5.67983 1.76139 3.42949C4.26132 6.50567 7.94981 8.37575 11.9093 8.57368C11.5125 6.8635 12.0546 5.07142 13.3338 3.86923C15.317 2.005 18.4361 2.10055 20.3003 4.08276C21.4031 3.86533 22.46 3.4607 23.4272 2.88739C23.0596 4.02718 22.2903 4.99537 21.2627 5.6106C22.2387 5.49555 23.1922 5.23425 24.0902 4.83547C23.4291 5.82608 22.5965 6.68897 21.6332 7.38611Z" fill="#1F96E0"/>
</g>
<defs>
<clipPath id="clip0_536_29376">
<rect width="24" height="24" fill="white" transform="translate(0.09021 0.53125)"/>
</clipPath>
</defs>
</svg>
